<svg xmlns="http://www.w3.org/2000/svg" width="24" height="25" viewBox="0 0 24 25" fill="none">
	<path d="M21 7.00001C21 8.93001 19.43 10.5 17.5 10.5C15.57 10.5 14 8.93001 14 7.00001C14 5.07001 15.57 3.50001 17.5 3.50001C19.43 3.50001 21 5.07001 21 7.00001ZM19 12.29C18.5 12.42 18 12.5 17.5 12.5C16.0421 12.4974 14.6447 11.9171 13.6138 10.8862C12.583 9.8553 12.0026 8.45788 12 7.00001C12 5.53001 12.58 4.20001 13.5 3.21001C13.3185 2.98755 13.0897 2.80838 12.8302 2.68555C12.5707 2.56272 12.2871 2.49934 12 2.50001C10.9 2.50001 10 3.40001 10 4.50001V4.79001C7.03 5.67001 5 8.40001 5 11.5V17.5L3 19.5V20.5H21V19.5L19 17.5V12.29ZM12 23.5C13.11 23.5 14 22.61 14 21.5H10C10 22.0304 10.2107 22.5391 10.5858 22.9142C10.9609 23.2893 11.4696 23.5 12 23.5Z" fill="#ABABAB" />
</svg>
