<svg width="1413" height="529" viewBox="0 0 1413 529" fill="none" xmlns="http://www.w3.org/2000/svg">
<path d="M1059.81 444.937C1047.05 444.937 1035.69 442.724 1025.71 438.299C1015.73 433.788 1007.84 427.151 1002.03 418.388C996.299 409.538 993.436 398.519 993.436 385.331C993.436 374.226 995.475 364.899 999.552 357.351C1003.63 349.802 1009.18 343.729 1016.21 339.131C1023.24 334.532 1031.22 331.062 1040.16 328.719C1049.18 326.377 1058.64 324.728 1068.53 323.774C1080.15 322.559 1089.52 321.431 1096.64 320.39C1103.75 319.262 1108.92 317.614 1112.13 315.445C1115.34 313.276 1116.94 310.065 1116.94 305.814V305.033C1116.94 296.791 1114.34 290.414 1109.13 285.902C1104.01 281.391 1096.73 279.135 1087.27 279.135C1077.29 279.135 1069.35 281.347 1063.45 285.772C1057.55 290.11 1053.65 295.576 1051.74 302.17L1000.46 298.005C1003.07 285.859 1008.19 275.361 1015.82 266.511C1023.46 257.574 1033.3 250.72 1045.36 245.948C1057.51 241.09 1071.56 238.66 1087.53 238.66C1098.63 238.66 1109.26 239.962 1119.41 242.565C1129.65 245.167 1138.72 249.202 1146.61 254.668C1154.6 260.134 1160.89 267.162 1165.48 275.751C1170.08 284.254 1172.38 294.448 1172.38 306.335V441.163H1119.8V413.442H1118.24C1115.03 419.689 1110.74 425.198 1105.36 429.97C1099.98 434.655 1093.52 438.343 1085.97 441.032C1078.42 443.635 1069.7 444.937 1059.81 444.937ZM1075.69 406.675C1083.84 406.675 1091.04 405.07 1097.29 401.859C1103.54 398.563 1108.44 394.138 1112 388.585C1115.55 383.032 1117.33 376.742 1117.33 369.714V348.501C1115.6 349.629 1113.21 350.67 1110.17 351.624C1107.22 352.492 1103.88 353.316 1100.15 354.097C1096.42 354.791 1092.69 355.442 1088.96 356.049C1085.23 356.57 1081.85 357.047 1078.81 357.481C1072.3 358.435 1066.62 359.953 1061.76 362.036C1056.9 364.118 1053.13 366.938 1050.44 370.495C1047.75 373.966 1046.4 378.304 1046.4 383.509C1046.4 391.058 1049.14 396.827 1054.6 400.818C1060.16 404.723 1067.18 406.675 1075.69 406.675ZM1270.84 325.596V441.163H1215.39V241.263H1268.23V276.532H1270.57C1275 264.906 1282.42 255.709 1292.83 248.942C1303.24 242.087 1315.86 238.66 1330.7 238.66C1344.58 238.66 1356.69 241.697 1367.01 247.77C1377.34 253.844 1385.36 262.52 1391.09 273.799C1396.81 284.991 1399.68 298.353 1399.68 313.883V441.163H1344.24V323.774C1344.32 311.54 1341.2 301.997 1334.87 295.142C1328.53 288.201 1319.81 284.731 1308.71 284.731C1301.25 284.731 1294.65 286.336 1288.92 289.546C1283.29 292.756 1278.86 297.442 1275.65 303.602C1272.53 309.675 1270.92 317.006 1270.84 325.596Z" fill="#003A6D"/>
<path d="M614.144 308.807L567.522 311.676C566.725 307.691 565.012 304.105 562.382 300.917C559.752 297.65 556.285 295.06 551.982 293.147C547.758 291.155 542.697 290.159 536.8 290.159C528.91 290.159 522.255 291.832 516.836 295.179C511.417 298.447 508.707 302.83 508.707 308.329C508.707 312.712 510.461 316.418 513.967 319.447C517.474 322.475 523.491 324.906 532.018 326.739L565.251 333.433C583.103 337.099 596.412 342.997 605.178 351.125C613.945 359.254 618.328 369.934 618.328 383.163C618.328 395.197 614.782 405.757 607.689 414.842C600.676 423.927 591.032 431.02 578.759 436.121C566.566 441.141 552.5 443.652 536.561 443.652C512.254 443.652 492.888 438.591 478.463 428.47C464.118 418.269 455.71 404.402 453.239 386.869L503.328 384.239C504.842 391.651 508.508 397.309 514.326 401.214C520.144 405.039 527.595 406.952 536.68 406.952C545.606 406.952 552.779 405.239 558.198 401.812C563.697 398.305 566.486 393.802 566.566 388.303C566.486 383.681 564.534 379.895 560.708 376.947C556.883 373.918 550.986 371.607 543.016 370.013L511.218 363.677C493.286 360.091 479.937 353.875 471.171 345.029C462.484 336.183 458.141 324.906 458.141 311.198C458.141 299.403 461.328 289.242 467.704 280.715C474.159 272.187 483.205 265.612 494.84 260.99C506.555 256.368 520.263 254.057 535.963 254.057C559.154 254.057 577.405 258.958 590.714 268.76C604.103 278.563 611.913 291.912 614.144 308.807Z" fill="#003A6D"/>
<path d="M350.497 365.916V265.673H398.914V440.246H352.429V408.536H350.611C346.671 418.765 340.117 426.986 330.949 433.199C321.856 439.412 310.756 442.519 297.648 442.519C285.979 442.519 275.713 439.867 266.848 434.563C257.983 429.259 251.05 421.72 246.049 411.946C241.124 402.171 238.624 390.465 238.548 376.827V265.673H286.964V368.189C287.04 378.494 289.806 386.639 295.261 392.625C300.717 398.61 308.028 401.603 317.196 401.603C323.031 401.603 328.486 400.277 333.563 397.625C338.639 394.898 342.731 390.882 345.837 385.578C349.02 380.274 350.573 373.72 350.497 365.916Z" fill="#003A6D"/>
<path d="M663.57 441.163V241.263H716.408V276.532H718.75C722.915 264.819 729.856 255.579 739.573 248.811C749.29 242.044 760.916 238.66 774.451 238.66C788.16 238.66 799.829 242.087 809.46 248.942C819.09 255.709 825.511 264.906 828.721 276.532H830.803C834.881 265.079 842.256 255.926 852.927 249.072C863.686 242.131 876.397 238.66 891.059 238.66C909.713 238.66 924.853 244.604 936.479 256.49C948.192 268.29 954.048 285.035 954.048 306.725V441.163H898.738V317.657C898.738 306.552 895.788 298.222 889.888 292.67C883.988 287.117 876.613 284.34 867.764 284.34C857.699 284.34 849.847 287.551 844.208 293.971C838.568 300.305 835.749 308.677 835.749 319.089V441.163H782V316.486C782 306.682 779.18 298.873 773.54 293.06C767.988 287.247 760.656 284.34 751.546 284.34C745.386 284.34 739.833 285.902 734.888 289.026C730.029 292.062 726.168 296.357 723.305 301.91C720.442 307.376 719.01 313.796 719.01 321.171V441.163H663.57Z" fill="#003A6D"/>
<ellipse cx="690.056" cy="199.377" rx="27.9249" ry="27.0511" fill="#FEAC00"/>
<line x1="691.169" y1="240.455" x2="691.169" y2="444.841" stroke="#FEAC00" stroke-width="58.0764"/>
<path d="M94.7021 144.308H84.0752V193.402C120.026 187.332 191.938 194.828 191.976 273.379C192.63 303.152 192.248 353.884 191.976 375.527C191.975 465.797 26.856 472.132 26.8555 375.527V114.217C28.218 94.1565 43.6951 52.4529 94.7021 46.1182V144.308ZM85.709 373.943C85.709 400.075 134.755 402.45 134.755 373.943V278.922C134.755 267.044 120.041 245.664 85.709 245.664V373.943Z" fill="#FEAC00"/>
</svg>