<svg xmlns="http://www.w3.org/2000/svg" width="31" height="31" viewBox="0 0 31 31" fill="none">
<path d="M22.8919 14.7641C22.8329 14.6119 22.7444 14.4729 22.6316 14.355L16.4325 8.15588C16.3169 8.04028 16.1796 7.94858 16.0286 7.88602C15.8776 7.82346 15.7157 7.79126 15.5522 7.79126C15.222 7.79126 14.9054 7.92242 14.6719 8.15588C14.5563 8.27148 14.4646 8.40872 14.4021 8.55975C14.3395 8.71079 14.3073 8.87267 14.3073 9.03615C14.3073 9.36632 14.4385 9.68296 14.6719 9.91642L18.7633 13.9954H9.3531C9.02428 13.9954 8.70893 14.1261 8.47642 14.3586C8.2439 14.5911 8.11328 14.9064 8.11328 15.2352C8.11328 15.5641 8.2439 15.8794 8.47642 16.1119C8.70893 16.3444 9.02428 16.4751 9.3531 16.4751H18.7633L14.6719 20.5541C14.5557 20.6693 14.4635 20.8065 14.4005 20.9575C14.3376 21.1086 14.3052 21.2707 14.3052 21.4343C14.3052 21.598 14.3376 21.7601 14.4005 21.9111C14.4635 22.0622 14.5557 22.1994 14.6719 22.3146C14.7872 22.4308 14.9243 22.5231 15.0754 22.586C15.2265 22.6489 15.3885 22.6813 15.5522 22.6813C15.7159 22.6813 15.8779 22.6489 16.029 22.586C16.1801 22.5231 16.3172 22.4308 16.4325 22.3146L22.6316 16.1155C22.7444 15.9976 22.8329 15.8586 22.8919 15.7064C23.0159 15.4045 23.0159 15.066 22.8919 14.7641Z" fill="white"/>
</svg>