<svg width="29" height="29" viewBox="0 0 29 29" fill="none" xmlns="http://www.w3.org/2000/svg">
<g clipPath="url(#clip0_1_519)">
<path d="M28.3442 14.5C28.3442 6.76801 22.0762 0.5 14.3442 0.5C6.61225 0.5 0.344238 6.76801 0.344238 14.5C0.344238 21.4877 5.46381 27.2796 12.1567 28.3299V18.5469H8.60205V14.5H12.1567V11.4156C12.1567 7.90687 14.2469 5.96875 17.4447 5.96875C18.976 5.96875 20.5786 6.24219 20.5786 6.24219V9.6875H18.8133C17.0742 9.6875 16.5317 10.7668 16.5317 11.875V14.5H20.4146L19.7938 18.5469H16.5317V28.3299C23.2247 27.2796 28.3442 21.4877 28.3442 14.5Z" fill="#1877F2"/>
<path d="M19.7938 18.5469L20.4146 14.5H16.5317V11.875C16.5317 10.7679 17.0742 9.6875 18.8133 9.6875H20.5786V6.24219C20.5786 6.24219 18.9765 5.96875 17.4447 5.96875C14.2469 5.96875 12.1567 7.90688 12.1567 11.4156V14.5H8.60205V18.5469H12.1567V28.3299C13.6063 28.5567 15.0822 28.5567 16.5317 28.3299V18.5469H19.7938Z" fill="white"/>
</g>
<defs>
<clipPath id="clip0_1_519">
<rect width="28" height="28" fill="white" transform="translate(0.344238 0.5)"/>
</clipPath>
</defs>
</svg>
