<svg width="29" height="29" viewBox="0 0 29 29" fill="none" xmlns="http://www.w3.org/2000/svg">
<g clipPath="url(#clip0_1_504)">
<path d="M28.071 14.8223C28.071 13.8706 27.9939 12.9138 27.8293 11.9775H14.624V17.3687H22.186C21.8722 19.1074 20.864 20.6456 19.3876 21.623V25.121H23.8991C26.5484 22.6827 28.071 19.0817 28.071 14.8223Z" fill="#4285F4"/>
<path d="M14.624 28.5009C18.3999 28.5009 21.5842 27.2611 23.9042 25.1211L19.3927 21.6231C18.1375 22.477 16.5171 22.9606 14.6292 22.9606C10.9768 22.9606 7.87995 20.4965 6.7688 17.1836H2.11328V20.7897C4.48991 25.5172 9.33063 28.5009 14.624 28.5009Z" fill="#34A853"/>
<path d="M6.76365 17.1837C6.17721 15.4449 6.17721 13.5621 6.76365 11.8234V8.21729H2.11328C0.127606 12.1732 0.127606 16.8339 2.11328 20.7898L6.76365 17.1837Z" fill="#FBBC04"/>
<path d="M14.624 6.04127C16.62 6.01041 18.5491 6.76146 19.9946 8.14012L23.9916 4.14305C21.4607 1.76642 18.1015 0.45979 14.624 0.500943C9.33062 0.500943 4.48991 3.48459 2.11328 8.21728L6.76366 11.8234C7.86966 8.50536 10.9716 6.04127 14.624 6.04127Z" fill="#EA4335"/>
</g>
<defs>
<clipPath id="clip0_1_504">
<rect width="28" height="28" fill="white" transform="translate(0.344238 0.5)"/>
</clipPath>
</defs>
</svg>
