<svg width="607" height="681" viewBox="0 0 607 681" fill="none" xmlns="http://www.w3.org/2000/svg">
<path d="M385.899 101.384L40.5781 254.594C30.8446 258.913 26.4367 270.346 30.7334 280.13L143.902 537.829C145.948 542.52 149.779 546.201 154.547 548.059C159.315 549.916 164.627 549.796 169.307 547.725L395.045 447.57C409.214 455.079 425.369 463.626 437.108 469.833C442.533 472.702 448.447 467.05 445.971 461.413L432.579 430.917L514.627 394.515C524.36 390.196 528.768 378.763 524.472 368.979L411.303 111.28C409.257 106.59 405.426 102.908 400.658 101.051C395.89 99.1932 390.578 99.3131 385.899 101.384Z" fill="white" stroke="#1B1B1B" strokeWidth="1.61341" stroke-linecap="round" stroke-linejoin="round"/>
<path d="M170.461 344.125L157.921 364.837" stroke="#1B1B1B" strokeWidth="1.61341" stroke-linecap="round" stroke-linejoin="round"/>
<path d="M446.898 363.073C443.331 371.51 438.512 379.361 432.603 386.361" stroke="#1B1B1B" strokeWidth="1.61341" stroke-linecap="round" stroke-linejoin="round"/>
<path d="M508.396 151.735L505.894 153.754L504.57 154.349L513.747 167.116L517.547 162.341" fill="#1B1B1B"/>
<path d="M508.396 151.735L505.894 153.754L504.57 154.349L513.747 167.116L517.547 162.341" stroke="#1B1B1B" strokeWidth="1.61341" stroke-linecap="round" stroke-linejoin="round"/>
<path d="M506.821 153.445L505.894 153.755L504.57 154.35L528.499 98.1538H529.919L533.45 110.318" fill="#1B1B1B"/>
<path d="M506.821 153.445L505.894 153.755L504.57 154.35L528.499 98.1538H529.919L533.45 110.318" stroke="#1B1B1B" strokeWidth="1.61341" stroke-linecap="round" stroke-linejoin="round"/>
<path d="M505.894 153.755L520.473 174.476L544.498 118.875L529.919 98.1538L505.894 153.755Z" fill="#1B1B1B"/>
<mask id="mask0_1_524" style="mask-type:luminance" maskUnits="userSpaceOnUse" x="505" y="98" width="40" height="77">
<path fillRule="evenodd" clipRule="evenodd" d="M505.894 153.755L520.473 174.476L544.498 118.875L529.919 98.1538L505.894 153.755Z" fill="white"/>
</mask>
<g mask="url(#mask0_1_524)">
<path d="M517.547 122.251C527.949 119.817 535.369 120.739 535.369 120.739L532.45 134.193C532.45 134.193 525.244 142.134 525.196 142.637C525.149 143.14 515.847 152.388 515.847 152.388C515.847 152.388 511.105 154.349 507.838 154.349C504.57 154.349 503.445 150.177 503.445 150.177L511.059 133.388" fill="#1B1B1B"/>
<path d="M517.547 122.251C527.949 119.817 535.369 120.739 535.369 120.739L532.45 134.193C532.45 134.193 525.244 142.134 525.196 142.637C525.149 143.14 515.847 152.388 515.847 152.388C515.847 152.388 511.105 154.349 507.838 154.349C504.57 154.349 503.445 150.177 503.445 150.177L511.059 133.388" stroke="#1B1B1B" strokeWidth="1.61341" stroke-linecap="round" stroke-linejoin="round"/>
</g>
<path fillRule="evenodd" clipRule="evenodd" d="M505.894 153.755L520.473 174.476L544.498 118.875L529.919 98.1538L505.894 153.755V153.755Z" stroke="#1B1B1B" strokeWidth="1.61341" stroke-linecap="round" stroke-linejoin="round"/>
<path d="M511.946 218.634C511.946 218.634 529.201 179.163 530.849 174.475C532.497 169.787 539.151 140.425 539.151 140.425C539.151 140.425 538.116 120.979 535.369 120.739C532.622 120.498 515.867 122.902 514.494 122.181C513.121 121.46 510.678 127.606 515.347 129.769C520.016 131.933 523.665 131.076 523.665 131.076C523.665 131.076 511.057 136.88 509.746 137.711C506.496 139.772 505.145 148.769 508.346 147.261C510.382 146.302 514.769 145.019 514.769 145.019C514.769 145.019 506.4 152.11 508.046 155.203C510.346 159.526 515.947 157.917 515.947 157.917C515.672 160.811 499.544 185.563 499.544 185.563L511.946 218.634Z" fill="white"/>
<mask id="mask1_1_524" style="mask-type:luminance" maskUnits="userSpaceOnUse" x="499" y="120" width="41" height="99">
<path fillRule="evenodd" clipRule="evenodd" d="M511.946 218.634C511.946 218.634 529.201 179.163 530.849 174.475C532.497 169.787 539.151 140.425 539.151 140.425C539.151 140.425 538.116 120.979 535.369 120.739C532.622 120.498 515.867 122.902 514.494 122.181C513.121 121.46 510.678 127.606 515.347 129.769C520.016 131.933 523.665 131.076 523.665 131.076C523.665 131.076 511.057 136.88 509.746 137.711C506.496 139.772 505.145 148.769 508.346 147.261C510.382 146.302 514.769 145.019 514.769 145.019C514.769 145.019 506.4 152.11 508.046 155.203C510.346 159.526 515.947 157.917 515.947 157.917C515.672 160.811 499.544 185.563 499.544 185.563L511.946 218.634Z" fill="white"/>
</mask>
<g mask="url(#mask1_1_524)">
<path d="M511.346 166.765C513.747 161.437 528.649 172.193 537.35 178.929C546.051 185.664 524.548 187.675 524.548 187.675L517.047 184.759" fill="white"/>
</g>
<path fillRule="evenodd" clipRule="evenodd" d="M511.946 218.634C511.946 218.634 529.201 179.163 530.849 174.475C532.497 169.787 539.151 140.425 539.151 140.425C539.151 140.425 538.116 120.979 535.369 120.739C532.622 120.498 515.867 122.902 514.494 122.181C513.121 121.46 510.678 127.606 515.347 129.769C520.016 131.933 523.665 131.076 523.665 131.076C523.665 131.076 511.057 136.88 509.746 137.711C506.496 139.772 505.145 148.769 508.346 147.261C510.382 146.302 514.769 145.019 514.769 145.019C514.769 145.019 506.4 152.11 508.046 155.203C510.346 159.526 515.947 157.917 515.947 157.917C515.672 160.811 499.544 185.563 499.544 185.563L511.946 218.634Z" stroke="#1B1B1B" strokeWidth="1.61341" stroke-linecap="round" stroke-linejoin="round"/>
<path d="M300.103 483.575L324.14 627.038L294.589 638.035L251.44 478.474L300.103 483.575Z" fill="white"/>
<mask id="mask2_1_524" style="mask-type:luminance" maskUnits="userSpaceOnUse" x="251" y="478" width="74" height="161">
<path fillRule="evenodd" clipRule="evenodd" d="M300.103 483.575L324.14 627.038L294.589 638.035L251.44 478.474L300.103 483.575Z" fill="white"/>
</mask>
<g mask="url(#mask2_1_524)">
<path d="M267.375 537.024C257.602 543.344 320.548 562.848 320.548 562.848L311.129 534.488" fill="white"/>
</g>
<path fillRule="evenodd" clipRule="evenodd" d="M300.103 483.575L324.14 627.038L294.589 638.035L251.44 478.474L300.103 483.575V483.575Z" stroke="#1B1B1B" strokeWidth="1.61341" stroke-linecap="round" stroke-linejoin="round"/>
<path d="M321.183 607.19C321.183 607.19 308.943 624.029 288.912 615.795C288.912 615.795 293.946 640.194 273.793 650.088C238.554 667.388 255.526 679.997 255.526 679.997L333.217 642.51C339.397 640.069 321.183 607.19 321.183 607.19Z" fill="#1B1B1B"/>
<mask id="mask3_1_524" style="mask-type:luminance" maskUnits="userSpaceOnUse" x="251" y="607" width="84" height="73">
<path fillRule="evenodd" clipRule="evenodd" d="M321.183 607.19C321.183 607.19 308.943 624.029 288.912 615.795C288.912 615.795 293.946 640.194 273.793 650.088C238.554 667.388 255.526 679.997 255.526 679.997L333.217 642.51C339.397 640.069 321.183 607.19 321.183 607.19Z" fill="white"/>
</mask>
<g mask="url(#mask3_1_524)">
<path d="M243.516 676.792L349.2 625.778L345.791 649.661L261.243 695.639" fill="#1B1B1B"/>
<path d="M243.516 676.792L349.2 625.778L345.791 649.661L261.243 695.639" stroke="#1B1B1B" strokeWidth="1.61341" stroke-linecap="round" stroke-linejoin="round"/>
</g>
<path fillRule="evenodd" clipRule="evenodd" d="M321.183 607.19C321.183 607.19 308.943 624.029 288.912 615.795C288.912 615.795 293.946 640.194 273.793 650.088C238.554 667.388 255.526 679.997 255.526 679.997L333.217 642.51C339.397 640.069 321.183 607.19 321.183 607.19Z" stroke="#1B1B1B" strokeWidth="1.61341" stroke-linecap="round" stroke-linejoin="round"/>
<path d="M265.073 537.044C317.83 556.769 339.314 532.102 339.314 532.102L286.867 354.755L216.611 382.966L265.073 537.044Z" fill="white" stroke="#1B1B1B" strokeWidth="1.61341" stroke-linecap="round" stroke-linejoin="round"/>
<path d="M278.087 415.102L397.896 494.747L385.731 524.252L241.315 447.903L278.087 415.102Z" fill="white"/>
<mask id="mask4_1_524" style="mask-type:luminance" maskUnits="userSpaceOnUse" x="241" y="415" width="157" height="110">
<path fillRule="evenodd" clipRule="evenodd" d="M278.087 415.102L397.896 494.747L385.731 524.252L241.315 447.903L278.087 415.102Z" fill="white"/>
</mask>
<g mask="url(#mask4_1_524)">
<path d="M328.764 499.409C326.676 510.991 375.143 473.5 375.143 473.5L356.69 465.073" fill="white"/>
</g>
<path fillRule="evenodd" clipRule="evenodd" d="M278.087 415.102L397.896 494.747L385.731 524.252L241.315 447.903L278.087 415.102V415.102Z" stroke="#1B1B1B" strokeWidth="1.61341" stroke-linecap="round" stroke-linejoin="round"/>
<path d="M381.572 483.455C381.572 483.455 385.392 504.029 365.832 513.359C365.832 513.359 379.975 522.941 373.406 544.69C361.918 582.72 383.467 576.804 383.467 576.804L407.748 497.177C410.191 490.91 381.572 483.455 381.572 483.455Z" fill="#1B1B1B"/>
<mask id="mask5_1_524" style="mask-type:luminance" maskUnits="userSpaceOnUse" x="365" y="483" width="43" height="95">
<path fillRule="evenodd" clipRule="evenodd" d="M381.572 483.455C381.572 483.455 385.392 504.029 365.832 513.359C365.832 513.359 379.975 522.941 373.406 544.69C361.918 582.72 383.467 576.804 383.467 576.804L407.748 497.177C410.191 490.91 381.572 483.455 381.572 483.455Z" fill="white"/>
</mask>
<g mask="url(#mask5_1_524)">
<path d="M373.351 581.701L404.687 482.498L422.443 505.371L411.704 555.685" fill="#1B1B1B"/>
<path d="M373.351 581.701L404.687 482.498L422.443 505.371L411.704 555.685" stroke="#1B1B1B" strokeWidth="1.61341" stroke-linecap="round" stroke-linejoin="round"/>
</g>
<path fillRule="evenodd" clipRule="evenodd" d="M381.572 483.455C381.572 483.455 385.392 504.029 365.832 513.359C365.832 513.359 379.975 522.941 373.406 544.69C361.918 582.72 383.467 576.804 383.467 576.804L407.748 497.177C410.191 490.91 381.572 483.455 381.572 483.455Z" stroke="#1B1B1B" strokeWidth="1.61341" stroke-linecap="round" stroke-linejoin="round"/>
<path d="M239.534 436.247C241.338 435.259 242.974 433.9 244.906 433.32C414.377 382.472 466.529 364.111 376.137 253.684L326.87 271.705L322.606 307.664L204.666 369.776L243.128 434.283" fill="white"/>
<mask id="mask6_1_524" style="mask-type:luminance" maskUnits="userSpaceOnUse" x="204" y="253" width="216" height="184">
<path fillRule="evenodd" clipRule="evenodd" d="M239.534 436.247C241.338 435.259 242.974 433.9 244.906 433.32C414.377 382.472 466.529 364.111 376.137 253.684L326.87 271.705L322.606 307.664L204.666 369.776L243.128 434.283" fill="white"/>
</mask>
<g mask="url(#mask6_1_524)">
<path d="M249.178 390.392C268.127 350.152 306.026 419.074 378.032 392.961C450.039 366.847 330.028 433.201 330.028 433.201L253.81 415.103" fill="white"/>
<path d="M321.606 297.497C311.088 307.493 408.983 300.218 423.51 320.155C438.038 340.091 426.931 288.721 426.931 288.721L383.576 272.223" fill="white"/>
</g>
<path d="M239.534 436.247C241.338 435.259 242.974 433.9 244.906 433.32C414.377 382.472 466.529 364.111 376.137 253.684L326.87 271.705L322.606 307.664L204.666 369.776L243.128 434.283" stroke="#1B1B1B" strokeWidth="1.61341" stroke-linecap="round" stroke-linejoin="round"/>
<path d="M259.593 290.892C259.593 290.892 221.858 309.761 218.251 310.2C214.645 310.638 194.217 312.486 191.126 313.143C188.035 313.801 161.737 312.121 161.221 311.463C160.706 310.805 150.749 314.405 164.402 319.228C178.054 324.051 196.793 324.764 197.308 326.956C197.824 329.148 184.687 332.443 184.429 334.852C184.171 337.261 195.248 336.11 195.248 336.11C195.248 336.11 215.082 332.111 217.143 331.012C219.203 329.913 269.71 316.122 269.71 316.122L259.593 290.892Z" fill="white"/>
<mask id="mask7_1_524" style="mask-type:luminance" maskUnits="userSpaceOnUse" x="157" y="290" width="113" height="47">
<path fillRule="evenodd" clipRule="evenodd" d="M259.593 290.892C259.593 290.892 221.858 309.761 218.251 310.2C214.645 310.638 194.217 312.486 191.126 313.143C188.035 313.801 161.737 312.121 161.221 311.463C160.706 310.805 150.749 314.405 164.402 319.228C178.054 324.051 196.793 324.764 197.308 326.956C197.824 329.148 184.687 332.443 184.429 334.852C184.171 337.261 195.248 336.11 195.248 336.11C195.248 336.11 215.082 332.111 217.143 331.012C219.203 329.913 269.71 316.122 269.71 316.122L259.593 290.892Z" fill="white"/>
</mask>
<g mask="url(#mask7_1_524)">
<path d="M229.898 305.313C219.838 303.981 232.605 320.788 228.704 332.838C225.499 342.74 244.706 331.029 244.706 331.029L245.306 316.553" fill="white"/>
</g>
<path fillRule="evenodd" clipRule="evenodd" d="M259.593 290.892C259.593 290.892 221.858 309.761 218.251 310.2C214.645 310.638 194.217 312.486 191.126 313.143C188.035 313.801 161.737 312.121 161.221 311.463C160.706 310.805 150.749 314.405 164.402 319.228C178.054 324.051 196.793 324.764 197.308 326.956C197.824 329.148 184.687 332.443 184.429 334.852C184.171 337.261 195.248 336.11 195.248 336.11C195.248 336.11 215.082 332.111 217.143 331.012C219.203 329.913 269.71 316.122 269.71 316.122L259.593 290.892Z" stroke="#1B1B1B" strokeWidth="1.61341" stroke-linecap="round" stroke-linejoin="round"/>
<path d="M227.155 301.874C221.875 307.684 249.404 345.052 249.404 345.052C249.404 345.052 305.008 318.579 326.518 294.838C348.028 271.098 363.903 182.856 363.903 182.856C363.903 182.856 348.332 176.664 343.683 177.023C320.357 178.822 292.615 261.292 292.615 261.292L227.155 301.874Z" fill="white" stroke="#1B1B1B" strokeWidth="1.61341" stroke-linecap="round" stroke-linejoin="round"/>
<path d="M331.003 193.871C326.15 203.937 323.114 217.133 330.919 229.086C346.23 252.537 306.829 298.67 306.829 298.67C336.919 301.676 407.773 292.197 407.773 292.197C391.914 245.294 429.095 180.215 426.447 178.933C396.189 164.276 342.02 177.401 342.02 177.401" fill="white"/>
<mask id="mask8_1_524" style="mask-type:luminance" maskUnits="userSpaceOnUse" x="306" y="171" width="121" height="129">
<path fillRule="evenodd" clipRule="evenodd" d="M331.003 193.871C326.15 203.937 323.114 217.133 330.919 229.086C346.23 252.537 306.829 298.67 306.829 298.67C336.919 301.676 407.773 292.197 407.773 292.197C391.914 245.294 429.095 180.215 426.447 178.933C396.189 164.276 342.02 177.401 342.02 177.401" fill="white"/>
</mask>
<g mask="url(#mask8_1_524)">
<path d="M357.323 163.346C324.918 203.558 383.462 216.071 416.143 166.795L357.323 163.346Z" fill="white"/>
<path d="M357.323 163.346C324.918 203.558 383.462 216.071 416.143 166.795" stroke="#1B1B1B" strokeWidth="1.61341" stroke-linecap="round" stroke-linejoin="round"/>
<path d="M360.869 159.782C328.464 199.993 384.883 197.008 419.689 163.23L360.869 159.782Z" fill="white"/>
<path d="M360.869 159.782C328.464 199.993 384.883 197.008 419.689 163.23" stroke="#1B1B1B" strokeWidth="1.61341" stroke-linecap="round" stroke-linejoin="round"/>
</g>
<path d="M331.003 193.871C326.15 203.937 323.114 217.133 330.919 229.086C346.23 252.537 306.829 298.67 306.829 298.67C336.919 301.676 407.773 292.197 407.773 292.197C391.914 245.294 429.095 180.215 426.447 178.933C396.189 164.276 342.02 177.401 342.02 177.401" stroke="#1B1B1B" strokeWidth="1.61341" stroke-linecap="round" stroke-linejoin="round"/>
<path d="M206.477 368.821C127.64 403.071 312.316 517.3 312.316 517.3C363.902 503.058 356.127 465.033 356.127 465.033C356.127 465.033 303.786 406.956 257.201 380.02" fill="white"/>
<path d="M206.477 368.821C127.64 403.071 312.316 517.3 312.316 517.3C363.902 503.058 356.127 465.033 356.127 465.033C356.127 465.033 303.786 406.956 257.201 380.02" stroke="#1B1B1B" strokeWidth="1.61341" stroke-linecap="round" stroke-linejoin="round"/>
<path d="M425.611 178.538C434.238 181.724 470.727 213.094 470.727 213.094L511.546 165.13C537.09 180.325 532.749 205.568 532.749 205.568C532.749 205.568 488.143 278.754 471.04 280.563C448.635 282.934 400.383 225.191 390.947 213.606" fill="white"/>
<path d="M425.611 178.538C434.238 181.724 470.727 213.094 470.727 213.094L511.546 165.13C537.09 180.325 532.749 205.568 532.749 205.568C532.749 205.568 488.143 278.754 471.04 280.563C448.635 282.934 400.383 225.191 390.947 213.606" stroke="#1B1B1B" strokeWidth="1.61341" stroke-linecap="round" stroke-linejoin="round"/>
<path d="M365.612 177.879L369.604 136.663L394.904 135.841C390.426 144.523 394.702 165.185 397.355 174.351" fill="white"/>
<mask id="mask9_1_524" style="mask-type:luminance" maskUnits="userSpaceOnUse" x="365" y="135" width="33" height="43">
<path fillRule="evenodd" clipRule="evenodd" d="M365.612 177.879L369.604 136.663L394.904 135.841C390.426 144.523 394.702 165.185 397.355 174.351" fill="white"/>
</mask>
<g mask="url(#mask9_1_524)">
<path d="M424.133 183.958C399.216 173.501 389.59 167.279 382.485 147.773C373.676 123.585 400.933 138.483 400.933 138.483C400.933 138.483 403.614 138.405 404.876 140.807C406.138 143.209 416.123 167.631 416.123 167.631" fill="white"/>
</g>
<path d="M365.612 177.879L369.604 136.663L394.904 135.841C390.426 144.523 394.702 165.185 397.355 174.351" stroke="#1B1B1B" strokeWidth="1.61341" stroke-linecap="round" stroke-linejoin="round"/>
<ellipse cx="322.572" cy="64.8981" rx="57.4511" ry="47.7606" transform="rotate(-20.5606 322.572 64.8981)" fill="#1B1B1B" stroke="#1B1B1B" strokeWidth="1.61341" stroke-linecap="round" stroke-linejoin="round"/>
<ellipse cx="378.266" cy="116.057" rx="35.111" ry="29.0147" transform="rotate(-20.5447 378.266 116.057)" fill="#1B1B1B" stroke="#1B1B1B" strokeWidth="1.61341" stroke-linecap="round" stroke-linejoin="round"/>
<path d="M394.196 96.2539C436.496 140.957 400.15 165.433 379.227 148.141L368.566 123.895L394.196 96.2539Z" fill="white"/>
<mask id="mask10_1_524" style="mask-type:luminance" maskUnits="userSpaceOnUse" x="368" y="96" width="46" height="58">
<path fillRule="evenodd" clipRule="evenodd" d="M394.196 96.2539C436.496 140.957 400.15 165.433 379.227 148.141L368.566 123.895L394.196 96.2539Z" fill="white"/>
</mask>
<g mask="url(#mask10_1_524)">
<path d="M409.475 126.565C409.995 126.635 410.522 126.495 410.938 126.176C411.355 125.858 411.628 125.387 411.697 124.867L412.147 121.547C412.296 120.464 411.54 119.465 410.457 119.314C409.937 119.244 409.411 119.383 408.994 119.702C408.577 120.02 408.304 120.492 408.235 121.012L407.786 124.331C407.637 125.414 408.393 126.414 409.475 126.565Z" fill="#1B1B1B"/>
<path d="M404.411 124.196C403.273 128.22 402.924 129.402 402.924 129.402C409.063 132.452 400.645 134.792 400.645 134.792" stroke="#1B1B1B" strokeWidth="1.61341" stroke-linecap="round" stroke-linejoin="round"/>
<path d="M396.465 133.717C396.134 135.125 396.844 136.57 398.159 137.169" stroke="#1B1B1B" strokeWidth="1.61341" stroke-linecap="round" stroke-linejoin="round"/>
<path d="M397.02 124.29C397.54 124.36 398.067 124.221 398.484 123.902C398.9 123.583 399.173 123.112 399.242 122.592L399.692 119.272C399.841 118.189 399.085 117.19 398.002 117.039C397.482 116.969 396.956 117.109 396.539 117.427C396.122 117.746 395.849 118.217 395.78 118.737L395.331 122.057C395.182 123.14 395.938 124.139 397.02 124.29Z" fill="#1B1B1B"/>
<path d="M411.572 114.747C415.405 116.463 414.01 118.499 411.544 117.584C409.079 116.668 409.068 113.626 411.572 114.747Z" fill="#1B1B1B"/>
<path d="M398.769 112.269C394.619 112.893 395.143 115.02 397.762 114.8C400.381 114.58 401.48 111.861 398.769 112.269Z" fill="#1B1B1B"/>
</g>
<path fillRule="evenodd" clipRule="evenodd" d="M394.196 96.2539C436.496 140.957 400.15 165.433 379.227 148.141L368.566 123.895L394.196 96.2539Z" stroke="#1B1B1B" strokeWidth="1.61341" stroke-linecap="round" stroke-linejoin="round"/>
<path d="M373.031 135.448L360.874 122.534L380.592 93.0891L391.166 92.4478C391.166 92.4478 394.777 89.867 396.12 92.4478" fill="#1B1B1B"/>
<path d="M373.031 135.448L360.874 122.534L380.592 93.0891L391.166 92.4478C391.166 92.4478 394.777 89.867 396.12 92.4478" stroke="#1B1B1B" strokeWidth="1.61341" stroke-linecap="round" stroke-linejoin="round"/>
<path d="M396.12 92.4478C400.772 101.387 402.308 120.313 373.031 135.448L396.12 92.4478Z" fill="#1B1B1B"/>
<path d="M396.12 92.4478C400.772 101.387 402.308 120.313 373.031 135.448" stroke="#1B1B1B" strokeWidth="1.61341" stroke-linecap="round" stroke-linejoin="round"/>
<path d="M382.292 131.738C353.645 125.371 361.333 148.541 380.65 148.767L382.292 131.738Z" fill="white"/>
<path d="M382.292 131.738C353.645 125.371 361.333 148.541 380.65 148.767" stroke="#1B1B1B" strokeWidth="1.61341" stroke-linecap="round" stroke-linejoin="round"/>
<ellipse cx="371.563" cy="148.767" rx="5.66478" ry="5.69391" fill="#1B1B1B" stroke="#1B1B1B" strokeWidth="1.61341" stroke-linecap="round" stroke-linejoin="round"/>
<path d="M101.956 420.78L93.2939 420.671L85.6584 420.575C81.9943 420.52 79.0688 417.505 79.1238 413.841C79.1412 412.081 79.8569 410.4 81.1135 409.169C82.37 407.937 84.0645 407.255 85.8241 407.272L102.121 407.477C105.785 407.533 108.711 410.548 108.656 414.212C108.639 415.972 107.923 417.652 106.666 418.884C105.41 420.116 103.715 420.798 101.956 420.78Z" fill="white" stroke="#1B1B1B" strokeWidth="1.61341" stroke-linecap="round" stroke-linejoin="round"/>
<path d="M146.226 463.312C142.409 471.231 134.011 475.067 127.468 471.88L70.1253 443.951C63.5829 440.765 61.3737 431.762 65.1911 423.844C69.0085 415.925 77.4068 412.089 83.9492 415.276L93.6976 420.024L141.292 443.205C147.835 446.391 150.044 455.394 146.226 463.312Z" fill="white"/>
<mask id="mask11_1_524" style="mask-type:luminance" maskUnits="userSpaceOnUse" x="63" y="414" width="86" height="60">
<path fillRule="evenodd" clipRule="evenodd" d="M146.226 463.312C142.409 471.231 134.011 475.067 127.468 471.88L70.1253 443.951C63.5829 440.765 61.3737 431.762 65.1911 423.844C69.0085 415.925 77.4068 412.089 83.9492 415.276L93.6976 420.024L141.292 443.205C147.835 446.391 150.044 455.394 146.226 463.312Z" fill="white"/>
</mask>
<g mask="url(#mask11_1_524)">
<path d="M114.143 414.871C52.255 426.588 118.43 466.088 118.43 466.088L67.0612 478.078L43.5068 437.272L88.7296 400.312" fill="white"/>
</g>
<path fillRule="evenodd" clipRule="evenodd" d="M146.226 463.312V463.312C142.409 471.231 134.011 475.067 127.468 471.88L70.1253 443.951C63.5829 440.765 61.3737 431.762 65.1911 423.844V423.844C69.0085 415.925 77.4068 412.089 83.9492 415.276L93.6976 420.024L141.292 443.205C147.835 446.391 150.044 455.394 146.226 463.312Z" stroke="#1B1B1B" strokeWidth="1.61341" stroke-linecap="round" stroke-linejoin="round"/>
<path d="M32.6193 406.883L29.0524 416.111C28.5492 417.423 27.5439 418.48 26.2589 419.049C24.9739 419.618 23.5152 419.651 22.2056 419.142L19.7301 418.175C17.0024 417.102 15.6548 414.026 16.7149 411.293L17.3734 409.589L20.2817 402.065C20.7849 400.753 21.7903 399.696 23.0753 399.127C24.3603 398.558 25.819 398.525 27.1286 399.034L29.604 400.001C32.3317 401.074 33.6793 404.15 32.6193 406.883Z" fill="white" stroke="#1B1B1B" strokeWidth="1.61341" stroke-linecap="round" stroke-linejoin="round"/>
<ellipse cx="108.555" cy="287.897" rx="24.6482" ry="83.9058" transform="rotate(-64.0098 108.555 287.897)" fill="url(#paint0_linear_1_524)"/>
<path d="M33.4784 380.197C29.958 395.348 24.4162 409.957 17.002 423.632C22.8436 427.048 29.085 430.393 35.6413 433.586C47.7968 439.506 59.687 444.251 70.5812 447.701C77.6588 434.492 85.3949 421.647 93.7604 409.215C82.7781 405.524 72.0505 401.114 61.6471 396.015C51.9474 391.315 42.5408 386.032 33.4784 380.197Z" fill="#1B1B1B" stroke="#1B1B1B" strokeWidth="1.61341" stroke-linecap="round" stroke-linejoin="round"/>
<path d="M17.0021 423.631C13.6886 429.755 10.0651 435.705 6.1456 441.459C-2.96257 454.877 -0.0713573 473.102 12.8059 482.916C28.0975 494.57 50.1579 489.152 58.4207 471.743C61.8999 464.412 65.9637 456.275 70.5814 447.7C59.6871 444.25 47.797 439.506 35.6414 433.585C29.0852 430.392 22.8437 427.048 17.0021 423.631Z" fill="white" stroke="#1B1B1B" strokeWidth="1.61341" stroke-linecap="round" stroke-linejoin="round"/>
<path d="M32.7319 254.391C37.2696 285.372 39.4294 311.643 38.885 334.817C38.4973 351.323 36.7352 366.258 33.4788 380.197C42.5412 386.032 51.9478 391.315 61.6475 396.015C72.0509 401.115 82.7785 405.524 93.7608 409.215C101.963 397.096 111.079 385.132 121.04 374.183C140.991 352.252 164.327 334.406 190.504 327.633L32.7319 254.391Z" fill="white"/>
<path fillRule="evenodd" clipRule="evenodd" d="M32.7319 254.391C37.2696 285.372 39.4294 311.643 38.885 334.817C38.4973 351.323 36.7352 366.258 33.4788 380.197C42.5412 386.032 51.9478 391.315 61.6475 396.015C72.0509 401.115 82.7785 405.524 93.7608 409.215C101.963 397.096 111.079 385.132 121.04 374.183C140.991 352.252 164.327 334.406 190.504 327.633L32.7319 254.391Z" stroke="#1B1B1B" strokeWidth="1.61341" stroke-linecap="round" stroke-linejoin="round"/>
<ellipse cx="108.555" cy="287.897" rx="33.2586" ry="94.1323" transform="rotate(-63.9987 108.555 287.897)" fill="#1B1B1B" stroke="#1B1B1B" strokeWidth="1.61341" stroke-linecap="round" stroke-linejoin="round"/>
<ellipse cx="108.555" cy="287.897" rx="24.6482" ry="83.9058" transform="rotate(-64.0098 108.555 287.897)" fill="white"/>
<mask id="mask12_1_524" style="mask-type:luminance" maskUnits="userSpaceOnUse" x="32" y="244" width="153" height="87">
<ellipse cx="108.555" cy="287.898" rx="24.6482" ry="83.9058" transform="rotate(-64.0098 108.555 287.898)" fill="white"/>
</mask>
<g mask="url(#mask12_1_524)">
<path d="M134.403 333.689L124.744 353.727C115.23 373.461 91.6013 381.707 71.9676 372.145C52.334 362.582 44.1301 338.832 53.6439 319.097L58.3305 309.376L63.3037 299.06C72.8174 279.325 96.446 271.079 116.08 280.642C135.713 290.204 143.917 313.954 134.403 333.689Z" fill="white"/>
<mask id="mask13_1_524" style="mask-type:luminance" maskUnits="userSpaceOnUse" x="49" y="276" width="90" height="101">
<path fillRule="evenodd" clipRule="evenodd" d="M134.403 333.689L124.744 353.727C115.23 373.461 91.6013 381.707 71.9676 372.145C52.334 362.582 44.1301 338.832 53.6439 319.097L58.3305 309.376L63.3037 299.06C72.8174 279.325 96.446 271.079 116.08 280.642C135.713 290.204 143.917 313.954 134.403 333.689Z" fill="white"/>
</mask>
<g mask="url(#mask13_1_524)">
<path d="M75.3781 274.548C79.3752 317.596 156.234 337.99 156.234 337.99L58.3304 309.376L53.6816 278.019L71.568 267.806" fill="white"/>
</g>
<path fillRule="evenodd" clipRule="evenodd" d="M134.403 333.689L124.744 353.727C115.23 373.461 91.6013 381.707 71.9676 372.145V372.145C52.334 362.582 44.1301 338.832 53.6439 319.098L58.3305 309.376L63.3037 299.06C72.8174 279.325 96.446 271.079 116.08 280.642V280.642C135.713 290.204 143.917 313.954 134.403 333.689Z" stroke="#1B1B1B" strokeWidth="1.61341" stroke-linecap="round" stroke-linejoin="round"/>
</g>
<ellipse cx="108.555" cy="287.897" rx="24.6482" ry="83.9058" transform="rotate(-64.0098 108.555 287.897)" stroke="#1B1B1B" strokeWidth="1.61341" stroke-linecap="round" stroke-linejoin="round"/>
<path d="M66.0728 351.827C69.7675 356.695 72.3688 362.302 73.6992 368.267" stroke="#1B1B1B" strokeWidth="1.61341" stroke-linecap="round" stroke-linejoin="round"/>
<path d="M204.21 96.7646H65.6449C61.729 96.7748 58.5627 99.9575 58.5728 103.873V167.622C58.5627 171.538 61.7289 174.72 65.6449 174.73H156.226C159.877 179.363 164.042 184.641 167.069 188.474C168.468 190.246 171.287 189.229 171.287 186.967V174.73H204.21C208.126 174.72 211.292 171.538 211.282 167.622V103.873C211.292 99.9576 208.126 96.7749 204.21 96.7646Z" fill="white"/>
<mask id="mask14_1_524" style="mask-type:luminance" maskUnits="userSpaceOnUse" x="58" y="96" width="154" height="94">
<path fillRule="evenodd" clipRule="evenodd" d="M204.21 96.7646H65.6449C61.729 96.7748 58.5627 99.9575 58.5728 103.873V167.622C58.5627 171.538 61.7289 174.72 65.6449 174.73H156.226C159.877 179.363 164.042 184.641 167.069 188.474C168.468 190.246 171.287 189.229 171.287 186.967V174.73H204.21C208.126 174.72 211.292 171.538 211.282 167.622V103.873C211.292 99.9576 208.126 96.7749 204.21 96.7646Z" fill="white"/>
</mask>
<g mask="url(#mask14_1_524)">
<path d="M211.283 85.752C211.822 199.645 38.5234 167.636 38.5234 167.636C38.5234 167.636 65.9253 203.756 69.6283 206.912C73.3313 210.067 239.224 213.044 239.224 213.044L222.931 81.2856" fill="#1B1B1B"/>
<path d="M211.283 85.752C211.822 199.645 38.5234 167.636 38.5234 167.636C38.5234 167.636 65.9253 203.756 69.6283 206.912C73.3313 210.067 239.224 213.044 239.224 213.044L222.931 81.2856" stroke="#1B1B1B" strokeWidth="1.61341" stroke-linecap="round" stroke-linejoin="round"/>
</g>
<path fillRule="evenodd" clipRule="evenodd" d="M204.21 96.7646H65.6449C61.729 96.7748 58.5627 99.9575 58.5728 103.873V167.622C58.5627 171.538 61.7289 174.72 65.6449 174.73H156.226C159.877 179.363 164.042 184.641 167.069 188.474C168.468 190.246 171.287 189.229 171.287 186.967V174.73H204.21C208.126 174.72 211.292 171.538 211.282 167.622V103.873C211.292 99.9576 208.126 96.7749 204.21 96.7646Z" stroke="#1B1B1B" strokeWidth="1.61341" stroke-linecap="round" stroke-linejoin="round"/>
<ellipse cx="89.4058" cy="133.616" rx="7.06402" ry="7.10035" fill="white" stroke="#1B1B1B" strokeWidth="1.61341" stroke-linecap="round" stroke-linejoin="round"/>
<ellipse cx="118.936" cy="133.616" rx="7.06402" ry="7.10035" fill="white" stroke="#1B1B1B" strokeWidth="1.61341" stroke-linecap="round" stroke-linejoin="round"/>
<ellipse cx="148.466" cy="133.616" rx="7.06402" ry="7.10035" fill="white" stroke="#1B1B1B" strokeWidth="1.61341" stroke-linecap="round" stroke-linejoin="round"/>
<ellipse cx="177.997" cy="133.616" rx="7.06402" ry="7.10035" fill="white" stroke="#1B1B1B" strokeWidth="1.61341" stroke-linecap="round" stroke-linejoin="round"/>
<path d="M184.261 153.548C180.66 156.77 176.696 159.562 172.449 161.866" stroke="#1B1B1B" strokeWidth="1.61341" stroke-linecap="round" stroke-linejoin="round"/>
<path d="M98.5855 105.845L96.5312 108.944" stroke="#1B1B1B" strokeWidth="1.61341" stroke-linecap="round" stroke-linejoin="round"/>
<path d="M195.653 156.045L187.58 163.569" stroke="white" strokeWidth="1.61341" stroke-linecap="round" stroke-linejoin="round"/>
<path d="M507.736 433.992C502.913 436.564 497.146 436.655 492.243 434.237L415.961 396.638V478.912C415.956 481.025 416.79 483.053 418.28 484.551C419.77 486.049 421.795 486.894 423.907 486.899H569.248C571.361 486.894 573.385 486.049 574.875 484.551C576.366 483.054 577.2 481.025 577.194 478.912V396.983L507.736 433.992Z" fill="white" stroke="#1B1B1B" strokeWidth="1.61341" stroke-linecap="round" stroke-linejoin="round"/>
<path d="M507.737 433.992L577.194 396.983V388.113C577.206 383.713 573.648 380.137 569.248 380.126H423.907C419.508 380.137 415.95 383.713 415.962 388.113V396.638L492.243 434.237C497.146 436.655 502.913 436.564 507.737 433.992Z" fill="white" stroke="#1B1B1B" strokeWidth="1.61341" stroke-linecap="round" stroke-linejoin="round"/>
<ellipse cx="577.194" cy="388.826" rx="28.9618" ry="29.1107" fill="white"/>
<mask id="mask15_1_524" style="mask-type:luminance" maskUnits="userSpaceOnUse" x="548" y="359" width="59" height="59">
<ellipse cx="577.194" cy="388.826" rx="28.9618" ry="29.1107" fill="white"/>
</mask>
<g mask="url(#mask15_1_524)">
<path d="M560.777 350.284C618.979 357.337 602.468 409.687 585.957 419.609C569.446 429.53 619.805 417.936 619.805 417.936L610.724 359.715L581.585 350.284" fill="white"/>
</g>
<ellipse cx="577.194" cy="388.826" rx="28.9618" ry="29.1107" stroke="#1B1B1B" strokeWidth="1.61341" stroke-linecap="round" stroke-linejoin="round"/>
<path d="M581.557 400.223H577.481V382.185L572.803 384.907L572.831 380.81L578.576 377.428H581.585L581.557 400.223Z" fill="white" stroke="#1B1B1B" strokeWidth="1.61341" stroke-linecap="round" stroke-linejoin="round"/>
<path d="M438.688 389.777L434.836 393.098" stroke="#1B1B1B" strokeWidth="1.61341" stroke-linecap="round" stroke-linejoin="round"/>
<path d="M542.173 463.986L531.726 466.79" stroke="#1B1B1B" strokeWidth="1.61341" stroke-linecap="round" stroke-linejoin="round"/>
<defs>
<linearGradient id="paint0_linear_1_524" x1="80.106" y1="376.381" x2="134.678" y2="377.113" gradientUnits="userSpaceOnUse">
<stop stop-color="#FFFEFF"/>
<stop offset="1" stop-color="#C5EFFE"/>
</linearGradient>
</defs>
</svg>
